<svg width="132" height="41" viewBox="0 0 132 41" fill="none" xmlns="http://www.w3.org/2000/svg">
<path d="M17.3171 11.8359C16.7643 12.7349 17.0933 13.8883 18.0536 14.4055C19.0184 14.9269 20.2459 14.6192 20.8029 13.716C21.3599 12.817 21.0264 11.6636 20.0661 11.1464C19.7483 10.9744 19.4016 10.8926 19.06 10.8926C18.365 10.8926 17.6903 11.2307 17.3171 11.8359Z" fill="url(#paint0_linear_7151_9663)"/>
<path d="M78.8088 32.8203C80.552 32.8203 82.1862 32.1748 82.9489 30.7132L90.3938 16.2694C90.4664 16.0996 90.6842 15.9975 90.8658 15.9975C91.1562 15.9975 91.4469 16.2014 91.4469 16.6092V32.3445H97.76V15.5215C97.76 12.9387 96.9256 11.3414 95.4743 10.2537C94.3857 9.43817 92.9343 8.86035 91.1926 8.86035C88.0695 8.86035 86.2537 10.5938 84.9825 13.1425L79.4261 24.426C79.2809 24.7658 79.0992 24.8676 78.8088 24.8676C78.5182 24.8676 78.3368 24.7658 78.1913 24.426L72.6352 13.1425C71.364 10.5938 69.5482 8.86035 66.425 8.86035C64.683 8.86035 63.2317 9.43817 62.1434 10.2537C60.6921 11.3414 59.8574 12.9387 59.8574 15.5215V32.3445H66.1708V16.6092C66.1708 16.2014 66.4612 15.9975 66.7519 15.9975C66.9335 15.9975 67.1513 16.0993 67.2239 16.2694L74.6688 30.7132C75.4315 32.1748 77.0656 32.8203 78.8088 32.8203Z" fill="#1E4492"/>
<path d="M118.968 32.3445C123.362 32.3445 126.594 30.9178 128.843 28.6079C130.803 26.6038 132 23.8839 132 20.8571C132 17.5247 130.476 14.4994 128.045 12.3934C125.868 10.5252 122.926 9.37012 118.968 9.37012H113.81C109.852 9.37012 106.91 10.5252 104.733 12.3934C102.302 14.4994 100.778 17.5247 100.778 20.8571C100.778 23.8839 101.976 26.6038 103.935 28.6079C106.185 30.9178 109.416 32.3445 113.81 32.3445H118.968ZM118.968 15.4503C121.183 15.4503 122.563 16.0284 123.616 16.9466C124.742 17.9328 125.432 19.3611 125.432 20.8913C125.432 22.2855 124.851 23.5776 123.907 24.5299C122.854 25.6179 121.292 26.2981 118.968 26.2981H113.81C111.486 26.2981 109.924 25.6179 108.871 24.5299C107.927 23.5776 107.346 22.2855 107.346 20.8913C107.346 19.3611 108.036 17.9328 109.162 16.9466C110.215 16.0284 111.595 15.4503 113.81 15.4503H118.968Z" fill="#1E4492"/>
<path d="M47.4558 3.48938C47.4558 2.50153 47.8345 1.67442 48.5914 1.00861C49.3487 0.342807 50.3009 0.00976562 51.448 0.00976562C52.5954 0.00976562 53.5243 0.342807 54.2359 1.00861C54.9471 1.67442 55.3025 2.50153 55.3025 3.48938C55.3025 4.47751 54.9471 5.30433 54.2359 5.97042C53.5243 6.63622 52.5954 6.96898 51.448 6.96898C50.3009 6.96898 49.3487 6.63622 48.5914 5.97042C47.8345 5.30433 47.4558 4.47751 47.4558 3.48938Z" fill="#1E4492"/>
<path d="M48.4891 11.3649C48.4891 10.6531 48.787 10.0564 49.3825 9.57503C49.9783 9.09337 50.6338 8.85254 51.3486 8.85254C52.143 8.85254 52.828 9.09337 53.4039 9.57503C53.9799 10.0564 54.2678 10.6531 54.2678 11.3649V29.9558C54.2678 30.6676 53.9699 31.2643 53.3741 31.7459C52.7783 32.2273 52.1231 32.4681 51.4083 32.4681C50.6139 32.4681 49.9286 32.2273 49.3527 31.7459C48.777 31.2643 48.4891 30.6676 48.4891 29.9558V11.3649Z" fill="#1E4492"/>
<path d="M108.001 3.9937H105.282V5.63607H108.319V6.91974H103.604V0H108.166V1.28311H105.282V2.72046H108.001V3.9937Z" fill="#1E4492"/>
<path d="M115.758 6.80637C115.243 6.97049 114.267 7.19666 113.291 7.19666C111.942 7.19666 110.965 6.87828 110.286 6.2621C109.606 5.6668 109.233 4.76299 109.244 3.74694C109.255 1.44722 111.042 0.132812 113.465 0.132812C114.42 0.132812 115.155 0.307654 115.517 0.472061L115.166 1.72415C114.76 1.5603 114.256 1.42663 113.444 1.42663C112.052 1.42663 110.999 2.16576 110.999 3.66459C110.999 5.09152 111.953 5.93357 113.324 5.93357C113.707 5.93357 114.015 5.89268 114.146 5.83064V4.38341H113.005V3.16178H115.758V6.80637Z" fill="#1E4492"/>
<path d="M120.536 3.97311L120.074 2.50473C119.943 2.09414 119.812 1.5809 119.702 1.17031H119.681C119.571 1.5809 119.461 2.10457 119.34 2.50473L118.902 3.97311H120.536ZM118.66 5.14342L118.134 6.91974H116.401L118.66 0H120.854L123.146 6.91974H121.347L120.777 5.14342H118.66Z" fill="#1E4492"/>
<path d="M124.648 1.31413H122.663V0H128.344V1.31413H126.326V6.91974H124.648V1.31413Z" fill="#1E4492"/>
<path fill-rule="evenodd" clip-rule="evenodd" d="M16.4034 1.3489C17.23 0.901363 18.1529 0.677734 19.0759 0.677734C19.9988 0.677734 20.9218 0.901363 21.7484 1.3489L35.4772 8.7706C37.1303 9.66144 38.1475 11.3157 38.1475 13.1013V18.2535L31.8291 14.7594C31.941 13.1421 31.0905 11.5281 29.4897 10.663C27.2429 9.44865 24.37 10.1693 23.0729 12.2726C21.7756 14.376 22.5454 17.0656 24.7923 18.2799C26.393 19.145 28.3114 19.0278 29.7513 18.1284L38.1475 22.7657V24.4473V27.9447C38.1475 29.7303 37.1303 31.3845 35.4772 32.2754L21.7484 39.6968C20.0955 40.5919 18.0565 40.5919 16.4034 39.6968L2.6746 32.2754C1.02176 31.3845 0 29.7303 0 27.9447V18.9621V16.6153V13.1013C0 11.3157 1.02176 9.66144 2.6746 8.7706L16.4034 1.3489ZM29.6103 15.8061L28.3756 16.4734L27.1411 17.1407L25.9064 16.4735L24.6718 15.806L24.6717 14.4714L24.6717 13.1369L25.9064 12.4694L27.1409 11.8022L28.3756 12.4695L29.6103 13.1368L29.6102 14.4715L29.6103 15.8061ZM14.4946 28.5641L2.60903e-05 20.9379L3.4921e-05 15.7209L17.0428 24.4322C18.809 23.3291 21.1616 23.1854 23.1247 24.2464C24.918 25.2156 25.9436 26.9513 26.0031 28.7563L21.9393 26.5597L20.425 27.3782L18.9109 28.1966L18.9108 29.8333L18.9108 31.4703L22.9747 33.6668C21.2754 34.521 19.1569 34.5573 17.3637 33.588C15.4005 32.527 14.3573 30.5475 14.4946 28.5641Z" fill="url(#paint1_linear_7151_9663)"/>
<path d="M11.6872 3.90349C13.8835 2.71908 16.1574 1.28145 17.5268 0.888054C19.0501 0.450671 20.3668 0.727874 21.4488 1.19571C21.5392 1.23463 21.6892 1.32459 21.6856 1.32515L16.934 11.3046C16.8756 11.4118 16.9789 11.5339 17.1036 11.5048L21.0172 10.5962C21.1413 10.5674 21.2443 10.6879 21.1877 10.795L6.24312 33.8523C6.16299 34.0029 5.919 33.918 5.96358 33.7547L11.1736 17.2396C11.201 17.1395 11.1074 17.047 10.9992 17.0673L6.12986 17.9762C6.0169 17.9973 5.92171 17.8967 5.95816 17.7943L11.6041 3.99373C11.6243 3.93648 11.6785 3.90828 11.6872 3.90349Z" fill="url(#paint2_linear_7151_9663)"/>
<defs>
<linearGradient id="paint0_linear_7151_9663" x1="17.049" y1="12.7758" x2="21.0728" y2="12.7758" gradientUnits="userSpaceOnUse">
<stop stop-color="#4361EE"/>
<stop offset="1" stop-color="#4CC9F0"/>
</linearGradient>
<linearGradient id="paint1_linear_7151_9663" x1="1.50233" y1="7.50385" x2="26.944" y2="38.7547" gradientUnits="userSpaceOnUse">
<stop stop-color="#2B79C9"/>
<stop offset="0.52" stop-color="#2152A0"/>
<stop offset="1" stop-color="#1E4492"/>
</linearGradient>
<linearGradient id="paint2_linear_7151_9663" x1="11.7026" y1="3.97625" x2="23.311" y2="27.9407" gradientUnits="userSpaceOnUse">
<stop stop-color="#F7CE0D"/>
<stop offset="1" stop-color="#FF9A00"/>
</linearGradient>
</defs>
</svg>
